<?xml version="1.0" standalone="no"?>
<!DOCTYPE svg PUBLIC "-//W3C//DTD SVG 20010904//EN"
 "http://www.w3.org/TR/2001/REC-SVG-20010904/DTD/svg10.dtd">
<svg version="1.0" xmlns="http://www.w3.org/2000/svg"
 width="260.000000pt" height="260.000000pt" viewBox="0 0 260.000000 260.000000"
 preserveAspectRatio="xMidYMid meet">
<metadata>
Created by potrace 1.11, written by Peter Selinger 2001-2013
</metadata>
<g transform="translate(0.000000,260.000000) scale(0.100000,-0.100000)"
fill="#000000" stroke="none">
<path d="M563 2251 c-190 -65 -238 -190 -190 -496 62 -398 71 -482 72 -670 0
-181 -9 -241 -61 -394 -44 -127 -32 -230 34 -298 88 -90 255 -85 441 14 164
87 231 191 201 314 -14 56 -14 58 -30 94 -9 21 -12 77 -10 190 1 88 3 219 3
290 2 127 3 130 27 146 31 21 90 34 90 21 0 -9 97 -173 144 -244 22 -33 75
-68 105 -68 11 0 21 -4 21 -9 0 -15 67 -94 92 -107 42 -24 96 -16 185 26 137
65 172 52 168 -60 -1 -36 -5 -76 -8 -90 -4 -14 -9 -36 -12 -50 -3 -14 -11 -54
-18 -90 -8 -36 -12 -88 -10 -115 5 -53 38 -136 69 -171 74 -83 226 -75 315 16
14 13 34 16 104 14 106 -2 140 8 153 46 6 16 8 31 5 34 -10 10 -14 77 -17 301
-2 121 -7 274 -10 340 -4 66 -9 158 -11 205 -2 47 -7 137 -11 200 -10 169 -10
347 0 416 8 60 7 63 -17 79 -42 27 -201 37 -352 21 -144 -15 -172 -40 -236
-213 -41 -109 -43 -113 -85 -134 -60 -28 -153 -32 -231 -8 -72 23 -88 39 -208
222 -43 65 -85 122 -94 127 -10 5 -45 7 -79 5 -57 -3 -67 -1 -111 30 -110 74
-314 105 -428 66z"/>
<path d="M226 1234 c-19 -49 18 -101 75 -107 44 -5 79 8 79 28 0 18 -52 75
-69 75 -6 0 -11 4 -11 8 0 4 -15 9 -34 10 -23 2 -36 -3 -40 -14z"/>
<path d="M308 1055 c-2 -2 -17 -5 -34 -8 -106 -16 -160 -106 -120 -201 19 -47
76 -88 113 -82 15 2 31 5 34 5 15 2 59 52 78 90 49 95 29 194 -38 197 -17 1
-32 0 -33 -1z"/>
</g>
</svg>
